<?xml version="1.0" encoding="UTF-8" standalone="no"?>
<!DOCTYPE svg PUBLIC "-//W3C//DTD SVG 1.1//EN" "http://www.w3.org/Graphics/SVG/1.1/DTD/svg11.dtd">
<svg width="100%" height="100%" viewBox="0 0 4254 1846" version="1.1" xmlns="http://www.w3.org/2000/svg" xmlns:xlink="http://www.w3.org/1999/xlink" xml:space="preserve" xmlns:serif="http://www.serif.com/" style="fill-rule:evenodd;clip-rule:evenodd;stroke-linejoin:round;stroke-miterlimit:2;">
    <g transform="matrix(1,0,0,1,-290.941,-833)">
        <g transform="matrix(4.16667,0,0,4.16667,0,0)">
            <g transform="matrix(1,0,0,1.19627,978.607,374.687)">
                <path d="M-425.894,174.717C-770.047,154.679 -864.007,96.42 -873.125,90.363C-930.461,52.279 -900.995,47.257 -902.754,47.676C-903.262,47.797 -901.313,49.116 -897.669,51.067L-897.668,51.068C-887.378,57.554 -864.216,70.354 -852.607,63.239C-861.381,58.172 -892.404,39.849 -898.137,36.893C-902.208,34.779 -902.141,29.033 -902.141,29.028C-901.417,26.571 -900.072,24.346 -898.282,22.331C-898.282,22.331 -889.4,4.99 -805.673,-18.62C-805.673,-18.62 -805.672,-18.619 -805.672,-18.619C-805.671,-18.618 -805.67,-18.618 -805.669,-18.617C-805.669,-18.617 -805.669,-18.617 -805.67,-18.617L-805.669,-18.616L-805.668,-18.616L-805.669,-18.617C-789.859,-23.076 -771.396,-27.757 -749.808,-32.588C-742.639,-34.192 -735.126,-35.814 -727.251,-37.449L-727.162,-37.467L-727.162,-37.466C-719.103,-39.553 -711.442,-41.348 -704.467,-42.722C-694.512,-44.683 -681.526,-46.589 -666.425,-48.334C-617.337,-54.004 -545.904,-57.961 -483.587,-56.504L-483.914,-56.808C-483.914,-56.808 -396.447,-136.885 -366.314,-146.093C-366.314,-146.093 -366.313,-146.093 -366.313,-146.093C-366.313,-146.093 -300.308,-99.674 -281.206,-29.767C-253.705,-24.929 -253.556,-20.055 -227.373,-15.847L-227.169,-16.356C-227.169,-16.356 -216.443,-20.858 -203.632,-26.064C-193.667,-30.113 -182.441,-34.587 -174.019,-37.7C-165.597,-40.812 -154.531,-42.163 -144.641,-41.19C-131.926,-39.94 -121.156,-34.849 -120.45,-24.726C-119.876,-16.498 -123.678,-9.214 -127.973,-3.724C-126.103,-3.662 -124.297,-3.62 -122.593,-3.611C-111.878,-3.75 -86.004,-5.746 -52.653,-19.704C-52.652,-19.704 -52.652,-19.704 -52.652,-19.704C-52.652,-19.704 -20.903,-40.187 16.385,-54.132C27.946,-58.456 40.039,-62.151 51.882,-64.412L51.884,-64.412C51.885,-64.413 51.885,-64.413 51.886,-64.413L51.888,-64.413C51.888,-64.413 51.888,-64.413 51.888,-64.413C56.076,-65.212 60.232,-65.829 64.324,-66.234C70.362,-66.932 75.728,-67.248 80.482,-67.237C98.786,-67.197 108.006,-62.321 111.421,-55.813C112.537,-53.686 112.054,-47.883 110.648,-40.198C108.871,-30.493 105.619,-17.788 102.251,-5.703C96.646,14.405 90.717,32.796 90.717,32.796C90.717,32.796 120.859,103.431 108.405,139.704C106.736,144.565 104.302,148.809 100.928,152.183C97.758,155.353 93.758,157.755 88.783,159.18C71.043,164.261 47.928,158.785 25.523,149.632C-14.943,133.1 -53.095,104.572 -53.095,104.572C-53.096,104.572 -53.096,104.572 -53.096,104.572C-60.016,100.689 -107.407,75.394 -142.631,90.103L-142.631,90.103C-146.189,91.589 -151.845,94.336 -152.947,94.868L-152.953,94.866L-152.953,94.866C-153.21,94.994 -153.185,94.983 -152.947,94.868C-130.906,100.19 -118.357,111.621 -118.357,111.621C-118.357,111.621 -117.83,130.643 -120.909,149.793C-123.962,168.773 -130.557,187.878 -144.723,188.712L-144.723,188.712C-165.86,189.955 -210.621,162.558 -232.255,148.377C-237.783,144.754 -249.487,154.439 -302.389,162.947C-275.887,189.959 -310.722,224.091 -310.722,224.091C-310.723,224.091 -310.723,224.091 -310.723,224.091C-347.334,226.88 -399.066,193.963 -425.894,174.717C-425.999,174.642 -426.104,174.566 -426.208,174.491C-426.323,174.494 -426.437,174.496 -426.552,174.498C-426.617,174.5 -426.682,174.501 -426.747,174.503C-426.551,174.552 -426.386,174.594 -426.256,174.626C-426.019,174.686 -425.894,174.717 -425.894,174.717ZM-902.754,47.676C-902.444,47.914 -900.567,49.24 -897.669,51.067C-900.351,49.63 -902.112,48.537 -902.644,48.015L-902.754,47.676ZM-386.154,86.623C-385.907,86.52 -384.428,86.313 -384.182,86.313C-384.551,84.665 -387.633,77.246 -388.372,75.701L-419.063,12.026C-419.433,11.201 -421.035,10.995 -422.021,11.098C-423.131,11.098 -429.047,11.098 -430.156,11.304C-430.526,11.304 -431.389,11.614 -431.512,11.923C-442.975,36.651 -454.561,61.379 -466.148,86.21L-447.905,86.21C-447.043,86.21 -446.303,84.974 -445.933,84.356C-444.947,82.398 -440.14,70.858 -439.277,68.798C-435.703,68.901 -413.393,69.107 -409.819,69.107C-409.573,69.107 -409.326,69.21 -409.203,69.313C-408.34,71.167 -403.04,82.295 -402.177,84.047C-401.931,84.768 -401.314,86.107 -400.451,86.107C-398.726,86.107 -388.003,86.623 -386.154,86.623ZM-425.349,35.518C-424.117,38.093 -416.845,53.342 -415.612,55.918C-421.775,55.918 -427.815,56.021 -433.977,56.021C-431.143,49.118 -428.184,42.318 -425.349,35.518ZM-332.907,83.016C-330.688,81.677 -328.593,80.131 -326.867,78.38C-323.293,74.774 -320.951,70.24 -319.718,65.707C-319.595,64.985 -319.102,62.513 -319.225,61.791C-319.348,61.585 -319.841,60.761 -320.088,60.555C-320.458,60.349 -321.32,59.731 -321.813,59.834C-323.539,59.937 -334.139,60.761 -335.865,60.864C-336.111,60.864 -336.728,61.585 -336.728,61.894C-336.851,64.058 -337.467,66.428 -338.946,68.179C-340.549,69.931 -342.397,71.786 -344.863,72.301C-347.821,72.919 -351.272,71.786 -353.491,70.034C-357.928,66.634 -360.146,61.482 -361.132,56.537C-362.612,49.736 -362.242,42.524 -359.9,35.93C-358.174,31.396 -353.244,25.317 -347.574,25.626C-344.369,25.832 -341.658,28.099 -339.809,30.263C-338.823,31.396 -336.851,31.499 -335.495,30.675C-331.921,28.511 -328.469,26.038 -324.895,23.669C-324.772,23.462 -323.909,22.638 -323.909,22.329C-323.909,21.814 -324.155,20.474 -324.525,20.165C-328.593,15.941 -334.755,12.438 -341.165,11.614C-344.616,11.098 -348.314,11.098 -351.888,11.82C-357.558,12.953 -362.858,15.735 -366.926,19.238C-371.609,23.256 -374.937,28.511 -377.033,33.766C-379.005,38.505 -379.868,43.657 -379.621,48.603C-379.621,48.706 -379.498,48.706 -379.621,48.809C-379.744,56.537 -377.895,64.676 -373.705,71.58C-371.609,75.186 -368.651,78.586 -365.077,81.162C-361.995,83.428 -358.298,84.974 -354.6,85.901C-353.737,86.107 -349.546,86.416 -348.56,86.416C-343.26,86.52 -337.344,85.592 -332.907,83.016ZM-247.489,86.829C-246.873,86.52 -246.257,86.416 -245.764,86.004C-242.313,83.635 -238.861,81.162 -235.04,79.101C-234.424,78.689 -233.192,77.968 -233.192,77.349C-233.315,75.495 -235.04,73.949 -236.273,72.507C-239.354,68.901 -258.706,47.469 -261.91,43.966C-261.91,43.863 -262.28,43.657 -262.157,43.554C-259.815,41.597 -245.764,29.748 -243.545,27.687C-243.422,27.584 -243.422,26.863 -243.299,26.76C-243.052,26.141 -244.038,25.317 -244.531,24.802C-247.982,22.226 -251.557,19.753 -254.515,16.868C-254.762,16.559 -255.871,15.838 -256.241,15.735C-256.734,15.632 -257.72,15.941 -258.089,16.147C-262.28,18.723 -280.646,34.796 -284.343,37.887L-284.343,12.85C-284.467,12.747 -284.836,12.438 -284.836,12.335C-284.96,12.232 -285.206,11.82 -285.329,11.717C-286.069,11.51 -286.932,11.407 -287.671,11.407C-290.999,11.51 -294.327,11.717 -297.655,11.717C-298.764,11.717 -302.585,11.304 -303.571,11.717C-304.434,12.232 -304.681,14.189 -304.804,15.117C-305.297,23.875 -304.927,75.907 -305.05,84.768C-305.05,85.077 -304.927,85.386 -304.804,85.695C-301.969,85.798 -299.257,85.901 -296.422,86.107C-295.806,86.107 -292.478,86.004 -291.985,86.004C-291.369,86.004 -288.411,86.416 -287.794,86.313C-286.808,86.004 -284.96,84.459 -284.467,83.635C-284.097,83.016 -284.22,82.295 -284.22,81.677C-284.467,79.204 -284.343,64.779 -284.343,62.306C-284.22,62.203 -284.22,62.306 -283.973,62.203C-281.632,60.143 -279.166,58.082 -276.825,56.021C-273.373,59.937 -252.789,82.81 -249.215,86.52C-248.599,86.623 -247.982,87.035 -247.489,86.829ZM-725.652,62.867C-683.242,62.009 -640.832,61.171 -598.423,60.263C-594.841,60.187 -592.664,58.383 -592.285,58.069C-590.418,56.522 -589.975,54.783 -589.893,54.46C-589.775,53.995 -589.769,53.515 -589.708,53.043C-589.708,53.041 -589.877,51.624 -589.878,51.621C-589.956,51.298 -590.381,49.555 -592.23,47.994C-592.606,47.677 -594.768,45.854 -598.348,45.754C-640.391,44.578 -682.433,43.339 -724.478,42.197C-720.444,39.824 -716.353,37.519 -712.28,35.195C-709.325,33.509 -706.349,31.851 -703.383,30.179C-702.051,29.428 -702.054,29.413 -701.01,28.393C-700.458,27.852 -699.972,27.26 -699.558,26.639C-699.15,26.027 -698.816,25.377 -698.558,24.711C-698.301,24.049 -698.12,23.363 -698.019,22.672C-697.917,21.981 -697.893,21.279 -697.95,20.585C-698.008,19.886 -698.143,19.188 -698.361,18.512C-698.582,17.825 -698.882,17.152 -699.261,16.515C-699.651,15.861 -700.192,15.278 -700.657,14.66C-700.658,14.658 -702.472,13.076 -702.475,13.074C-703.122,12.612 -703.83,12.206 -704.574,11.86C-705.306,11.519 -706.083,11.24 -706.88,11.024C-707.672,10.809 -708.493,10.658 -709.319,10.573C-710.145,10.488 -710.985,10.468 -711.816,10.516C-712.652,10.564 -713.487,10.677 -714.296,10.859C-715.117,11.044 -715.923,11.294 -716.684,11.611C-718.122,12.21 -718.138,12.204 -719.332,13.102C-721.992,15.102 -724.639,17.114 -727.312,19.101C-731.301,22.066 -735.287,25.036 -739.32,27.96C-743.978,31.336 -748.671,34.678 -753.382,38.002C-755.798,39.706 -758.248,41.376 -760.699,43.044C-762.14,44.025 -763.628,44.957 -765.059,45.949C-765.477,46.238 -765.872,46.551 -766.242,46.883C-766.484,47.1 -766.67,47.356 -766.888,47.589C-767.003,47.713 -767.142,47.821 -767.242,47.954C-767.531,48.337 -767.821,48.723 -768.052,49.133C-768.756,50.38 -768.92,51.532 -768.951,51.748C-769.015,52.202 -769.02,52.661 -769.013,53.118C-769.01,53.331 -768.948,53.541 -768.919,53.753C-768.776,54.807 -768.825,54.82 -768.394,55.818C-767.823,57.142 -766.945,58.072 -766.78,58.246C-766.432,58.614 -766.039,58.951 -765.635,59.276C-764.974,59.809 -764.264,60.298 -763.588,60.818C-756.795,66.032 -749.982,71.228 -743.226,76.477C-735.425,82.537 -727.695,88.66 -719.918,94.742C-719.737,94.883 -719.554,95.024 -719.354,95.145C-718.647,95.575 -717.963,96.039 -717.199,96.394C-716.455,96.739 -715.664,97.019 -714.853,97.235C-714.054,97.447 -713.226,97.591 -712.394,97.671C-711.567,97.749 -710.726,97.761 -709.896,97.707C-709.066,97.652 -708.238,97.532 -707.436,97.348C-706.628,97.161 -705.837,96.911 -705.087,96.598C-704.326,96.28 -703.596,95.901 -702.926,95.464C-702.236,95.014 -701.66,94.455 -701.028,93.951C-701.027,93.949 -699.533,92.149 -699.531,92.146C-699.118,91.524 -698.783,90.863 -698.525,90.185C-698.271,89.518 -698.098,88.825 -698.004,88.13C-697.909,87.438 -697.896,86.736 -697.961,86.042C-698.025,85.348 -698.169,84.656 -698.39,83.985C-698.613,83.31 -698.912,82.648 -699.287,82.022C-699.667,81.385 -700.12,80.775 -700.644,80.215C-701.463,79.337 -702.296,78.741 -702.456,78.627C-713.783,70.528 -719.704,66.624 -725.652,62.867ZM-482.171,81.265C-475.145,75.907 -471.448,66.943 -473.173,59.112C-473.913,55.712 -475.638,52.312 -478.473,49.839C-479.213,49.118 -483.527,45.718 -484.513,45.1C-484.636,44.997 -484.636,44.894 -484.513,44.688C-479.459,37.578 -478.966,27.996 -483.28,20.681C-484.266,18.929 -486.238,17.693 -487.841,16.353C-488.827,15.426 -490.183,14.808 -491.539,14.086C-495.236,12.026 -499.92,11.304 -504.481,10.892C-504.604,10.892 -505.467,10.995 -505.59,10.995L-532.46,10.995C-532.953,10.995 -535.295,11.304 -535.788,11.407C-536.034,11.51 -536.404,11.923 -536.527,12.026C-537.39,12.541 -538.006,13.468 -537.883,14.292C-537.883,15.014 -538.006,15.735 -538.006,16.353C-538.006,24.39 -538.13,73.743 -538.13,81.677C-538.253,82.295 -538.376,84.562 -538.13,85.077C-537.883,85.592 -537.02,85.901 -536.404,85.901C-531.474,86.107 -501.153,86.313 -496.222,86.313C-491.045,86.416 -485.869,84.047 -482.171,81.265ZM-504.85,43.142C-505.467,43.039 -509.534,43.142 -510.274,43.142C-511.753,43.039 -520.627,43.142 -522.106,43.142C-522.106,40.772 -521.983,26.554 -522.106,24.287C-519.518,24.287 -506.576,24.184 -504.111,24.493C-502.385,24.802 -500.536,25.42 -499.18,26.347C-496.962,27.79 -495.606,30.263 -495.359,32.633C-494.743,37.887 -498.564,43.554 -504.85,43.142ZM-499.92,73.64C-502.632,73.434 -519.395,73.743 -522.106,73.64L-522.106,55.094C-522.106,54.579 -521.49,54.579 -520.997,54.785C-520.504,54.888 -517.916,54.785 -517.423,54.785C-512.369,54.785 -507.315,54.785 -502.385,54.888C-499.92,54.888 -497.208,55.197 -495.113,56.33C-493.141,57.361 -491.662,59.112 -491.045,60.864C-489.443,64.985 -491.169,70.961 -495.729,72.919C-497.208,73.537 -498.564,73.743 -499.92,73.64Z"/>
            </g>
        </g>
    </g>
</svg>
