<?xml version="1.0" encoding="UTF-8" standalone="no"?>
<!DOCTYPE svg PUBLIC "-//W3C//DTD SVG 1.1//EN" "http://www.w3.org/Graphics/SVG/1.1/DTD/svg11.dtd">
<svg width="100%" height="100%" viewBox="0 0 245 399" version="1.1" xmlns="http://www.w3.org/2000/svg" xmlns:xlink="http://www.w3.org/1999/xlink" xml:space="preserve" xmlns:serif="http://www.serif.com/" style="fill-rule:evenodd;clip-rule:evenodd;stroke-linejoin:round;stroke-miterlimit:2;">
    <g transform="matrix(1,0,0,1,-65.9721,-73.4821)">
        <g transform="matrix(4.16667,0,0,4.16667,0,0)">
            <g transform="matrix(1,0,0,1,49.7413,82.9327)">
                <path d="M24.634,-56.952C24.484,-36.038 24.901,-15.122 24.732,5.791C24.704,9.339 24.192,12.887 23.729,16.433C23.919,17.463 23.945,19.584 23.479,20.807C23.396,21.025 23.29,21.224 23.172,21.409C23.04,22.983 22.96,24.555 22.994,26.126C23.113,31.656 18.157,30.205 14.907,30.178C1.703,30.067 -11.494,29.52 -24.697,29.22C-26.649,29.176 -28.619,29.605 -31.868,29.952L-31.868,28.981C-32.199,28.853 -32.434,28.677 -32.434,28.677L-31.868,27.738L-31.868,26.707C-32.679,26.429 -34.14,25.916 -33.876,25.916C-33.516,25.916 -33.908,-61.835 -33.908,-61.835L-32.794,-61.697L-32.614,-61.973C-32.975,-62.249 -34.057,-64.32 -31.352,-64.044C-28.99,-63.803 -28.004,-62.827 -27.791,-62.582L-26.305,-62.582L-25.753,-62.565L-20.891,-62.663C-20.891,-62.663 -21.432,-64.233 -20.891,-64.069C-20.349,-63.906 21.405,-65.297 21.405,-65.297L23.028,-64.182C23.028,-64.182 23.029,-63.515 23.03,-62.315C24.202,-61.139 24.651,-59.373 24.634,-56.952ZM-22.197,16.255L-22.197,-51.075L-25.864,-51.209L-25.864,16.255L-22.197,16.255ZM-22.197,24.535L-22.197,18.366L-25.864,18.366L-25.864,24.535L-22.197,24.535ZM11.325,23.27L11.325,18.366L-19.858,18.366L-19.858,24.535L-19.628,24.535C-19.628,24.535 -18.906,23.431 -18.906,23.292C-18.906,23.192 0.661,23.237 11.325,23.27ZM17.709,-51.723L17.709,-56.891C16.353,-56.937 15.009,-56.983 13.664,-57.028L13.664,-51.872L17.709,-51.723ZM11.325,16.255L11.325,-49.845L-19.858,-50.989L-19.858,16.255L11.325,16.255ZM-8.727,-19.87C-10.657,-20.743 -12.514,-21.741 -13.437,-23.826C-13.546,-24.072 -13.621,-24.333 -13.789,-24.806C-11.536,-25.132 -9.886,-23.741 -7.637,-23.433C-7.637,-26.502 -7.632,-29.558 -7.639,-32.615C-7.642,-34.093 -7.609,-35.576 -7.719,-37.047C-7.752,-37.489 -8.118,-38.034 -8.495,-38.301C-10.163,-39.486 -12.098,-40.396 -12.479,-42.679C-10.883,-44.142 -9.476,-42.53 -7.978,-42.308C-7.063,-43.816 -8.757,-46.175 -6.016,-47.216C-5.74,-45.732 -5.384,-44.334 -5.249,-42.916C-5.153,-41.905 -4.864,-41.346 -3.869,-40.868C-1.79,-39.869 0.499,-38.957 2.105,-37.396C5.234,-34.356 5.516,-29.85 2.237,-26.387C0.539,-24.593 -1.108,-22.75 -2.562,-21.165C-0.624,-19.364 1.417,-17.732 3.102,-15.793C3.942,-14.825 4.274,-13.326 4.582,-12.009C4.948,-10.44 3.876,-9.371 2.775,-8.495C0.828,-6.946 -1.219,-5.522 -3.163,-3.971C-3.581,-3.637 -3.956,-2.986 -3.981,-2.465C-4.132,0.726 -4.159,3.922 -4.266,7.114C-4.306,8.282 -4.729,9.278 -5.88,9.81C-6.537,10.112 -6.872,10.049 -7.168,9.226C-8.08,6.692 -8.166,4.093 -8.096,1.456C-8.056,-0.034 -7.848,-1.545 -8.677,-2.95C-8.834,-3.216 -8.608,-3.737 -8.501,-4.125C-8.308,-4.823 -7.895,-5.506 -7.884,-6.199C-7.819,-10.277 -7.863,-14.356 -7.822,-18.435C-7.815,-19.177 -8.046,-19.562 -8.727,-19.87ZM0,-33.641C-1.422,-34.599 -2.876,-35.508 -4.563,-36.597C-4.395,-32.616 -4.243,-29.016 -4.079,-25.125C-2.128,-27.124 -0.163,-28.692 0.633,-31.21C0.944,-32.192 0.895,-33.037 0,-33.641ZM0.875,-13.176C-0.392,-14.891 -2.08,-16.071 -3.942,-17.134L-3.942,-7.834C-2.296,-9.074 -0.864,-10.121 0.529,-11.218C1.186,-11.734 1.441,-12.407 0.875,-13.176ZM11.325,-51.957L11.325,-57.107C0.827,-57.464 -9.377,-57.809 -19.858,-58.165L-19.858,-53.102L11.325,-51.957ZM17.709,16.255L17.709,-49.61L13.664,-49.759L13.664,16.255L17.709,16.255ZM17.709,23.291L17.709,18.366L13.664,18.366L13.664,23.277C15.622,23.283 17.074,23.288 17.709,23.291ZM-22.197,-53.188L-22.197,-58.244C-23.417,-58.286 -24.634,-58.327 -25.864,-58.369L-25.864,-53.322L-22.197,-53.188Z" style="fill:white;"/>
            </g>
        </g>
    </g>
</svg>
