<?xml version="1.0" encoding="UTF-8" standalone="no"?>
<!DOCTYPE svg PUBLIC "-//W3C//DTD SVG 1.1//EN" "http://www.w3.org/Graphics/SVG/1.1/DTD/svg11.dtd">
<svg width="100%" height="100%" viewBox="0 0 763 523" version="1.1" xmlns="http://www.w3.org/2000/svg" xmlns:xlink="http://www.w3.org/1999/xlink" xml:space="preserve" xmlns:serif="http://www.serif.com/" style="fill-rule:evenodd;clip-rule:evenodd;stroke-linejoin:round;stroke-miterlimit:2;">
    <g transform="matrix(4.16667,0,0,4.16667,207.255,345.553)">
        <g id="Layer-1" serif:id="Layer 1">
            <path d="M0,-33.641C0.895,-33.037 0.944,-32.192 0.633,-31.21C-0.163,-28.692 -2.128,-27.124 -4.079,-25.125C-4.243,-29.016 -4.395,-32.616 -4.563,-36.597C-2.876,-35.508 -1.422,-34.599 0,-33.641M0.875,-13.176C1.441,-12.407 1.186,-11.734 0.529,-11.218C-0.864,-10.121 -2.296,-9.074 -3.942,-7.834L-3.942,-17.134C-2.08,-16.071 -0.392,-14.891 0.875,-13.176M-8.727,-19.87C-8.046,-19.562 -7.815,-19.177 -7.822,-18.435C-7.863,-14.356 -7.819,-10.277 -7.884,-6.199C-7.895,-5.506 -8.308,-4.823 -8.501,-4.125C-8.608,-3.737 -8.834,-3.216 -8.677,-2.95C-7.848,-1.545 -8.056,-0.034 -8.096,1.456C-8.166,4.093 -8.08,6.692 -7.168,9.226C-6.872,10.049 -6.537,10.112 -5.88,9.81C-4.729,9.278 -4.306,8.282 -4.266,7.114C-4.159,3.922 -4.132,0.726 -3.981,-2.465C-3.956,-2.986 -3.581,-3.637 -3.163,-3.971C-1.219,-5.522 0.828,-6.946 2.775,-8.495C3.876,-9.371 4.948,-10.44 4.582,-12.009C4.274,-13.326 3.942,-14.825 3.102,-15.793C1.417,-17.732 -0.624,-19.364 -2.562,-21.165C-1.108,-22.75 0.539,-24.593 2.237,-26.387C5.516,-29.85 5.234,-34.356 2.105,-37.396C0.499,-38.957 -1.79,-39.869 -3.869,-40.868C-4.864,-41.346 -5.153,-41.905 -5.249,-42.916C-5.384,-44.334 -5.74,-45.732 -6.016,-47.216C-8.757,-46.175 -7.063,-43.816 -7.978,-42.308C-9.476,-42.53 -10.883,-44.142 -12.479,-42.679C-12.098,-40.396 -10.163,-39.486 -8.495,-38.301C-8.118,-38.034 -7.752,-37.489 -7.719,-37.047C-7.609,-35.576 -7.642,-34.093 -7.639,-32.615C-7.632,-29.558 -7.637,-26.502 -7.637,-23.433C-9.886,-23.741 -11.536,-25.132 -13.789,-24.806C-13.621,-24.333 -13.546,-24.072 -13.437,-23.826C-12.514,-21.741 -10.657,-20.743 -8.727,-19.87M90.269,-1.053C90.591,-4.276 91.277,-7.368 93.159,-10.101C93.387,-10.432 93.249,-11.015 93.28,-11.48C92.861,-11.441 92.386,-11.516 92.031,-11.346C89.654,-10.2 88.443,-8.124 87.498,-5.763C86.065,-2.181 86.482,1.196 88.339,4.464C88.572,4.872 89.034,5.221 89.47,5.429C90.815,6.071 93.411,5.155 94.946,3.394C93.84,2.678 92.796,1.938 91.691,1.304C90.75,0.763 90.152,0.119 90.269,-1.053M73.425,-25.632L73.425,-35.345C74.525,-35.806 75.555,-36.189 76.541,-36.664C77.766,-37.254 77.829,-37.893 76.618,-38.558C75.578,-39.128 74.393,-39.436 73.237,-39.874C72.814,-42.938 72.379,-46.089 71.945,-49.24C71.775,-49.286 71.605,-49.33 71.435,-49.375C71.12,-48.958 70.628,-48.58 70.524,-48.115C70.281,-47.034 70.148,-45.914 70.107,-44.805C70.042,-43.058 70.09,-41.306 70.09,-39.572C68.737,-39.049 67.31,-38.498 65.879,-37.946C66.505,-35.579 68.553,-35.899 70.255,-35.459C70.27,-35.174 70.311,-34.862 70.299,-34.552C70.211,-32.119 69.991,-29.682 70.061,-27.254C70.108,-25.632 70.566,-24.023 70.845,-22.374C73.425,-23.234 73.425,-23.234 73.425,-25.632M57.064,-25.349C59.169,-24.862 61.023,-25.715 62.535,-27.217C63.196,-27.874 63.043,-29.053 62.189,-29.364C61.33,-29.676 60.336,-29.603 59.438,-29.837C58.723,-30.024 57.615,-30.276 57.466,-30.747C57.088,-31.944 57.151,-33.28 57.029,-34.649C59.3,-34.467 61.136,-34.998 62.804,-36.073C63.099,-36.264 63.451,-36.775 63.381,-37.029C63.282,-37.388 62.858,-37.733 62.49,-37.92C62.201,-38.067 61.786,-37.972 61.426,-37.973C60.093,-37.976 58.759,-37.974 57.319,-37.974C57.426,-38.735 57.544,-39.581 57.668,-40.465C60.868,-39.434 63.59,-40.722 66.383,-41.978C63.904,-43.635 61.162,-43.586 58.413,-43.477C58.249,-43.906 58.109,-44.271 57.81,-45.05C57.1,-44.297 56.42,-43.797 56.035,-43.127C54.623,-40.67 54.18,-37.911 53.757,-35.158C53.329,-32.373 53.705,-29.668 54.936,-27.165C55.323,-26.38 56.243,-25.539 57.064,-25.349M66.187,-12.392C65.392,-13.008 64.933,-13.441 64.404,-13.759C61.764,-15.341 59.162,-14.895 56.664,-13.443C54.642,-12.269 54.674,-12.214 54.901,-10.646C55.271,-10.716 55.641,-10.786 56.259,-10.902C55.199,-9.148 56.158,-6.758 53.641,-5.776C54.133,-5.29 54.507,-4.92 54.983,-4.448C54.757,-2.282 55.022,-0.028 55.904,2.16C56.546,3.756 57.333,5.157 59.131,5.646C60.605,6.045 64.187,4.859 65.054,3.571C65.324,3.171 65.399,2.426 65.211,1.988C65.017,1.534 64.445,1.102 63.951,0.954C63.464,0.81 62.86,0.996 62.321,1.105C60.642,1.44 58.677,0.481 58.375,-0.99C58.125,-2.219 58.1,-3.493 57.971,-4.795C58.78,-4.915 59.421,-4.934 60.013,-5.116C61.169,-5.473 62.324,-5.865 63.423,-6.364C63.747,-6.511 64.083,-7.09 64.045,-7.431C64.012,-7.732 63.505,-8.072 63.138,-8.221C62.754,-8.376 62.279,-8.395 61.858,-8.346C60.619,-8.2 59.387,-7.991 58.002,-7.785C58.112,-8.913 58.214,-9.964 58.293,-10.777C60.912,-11.312 63.356,-11.813 66.187,-12.392M89.102,-28.617C87.907,-28.617 86.734,-28.579 85.565,-28.63C84.742,-28.665 83.898,-28.734 83.115,-28.963C82.779,-29.061 82.347,-29.601 82.344,-29.943C82.332,-31.724 82.444,-33.506 82.512,-35.295C82.796,-35.295 82.918,-35.318 83.029,-35.292C85.574,-34.696 87.889,-35.283 90.015,-36.704C90.325,-36.912 90.604,-37.352 90.639,-37.71C90.659,-37.899 90.153,-38.242 89.831,-38.343C89.237,-38.529 88.606,-38.667 87.987,-38.684C86.36,-38.73 84.732,-38.7 83.025,-38.7C83.141,-39.62 83.245,-40.431 83.32,-41.02C86.384,-41.857 89.334,-42.662 92.284,-43.467C89.748,-45.278 88.381,-45.876 84.011,-44.965C83.945,-45.132 83.88,-45.31 83.805,-45.484C83.643,-45.854 83.474,-46.222 83.309,-46.591C82.926,-46.33 82.529,-46.087 82.167,-45.8C82.02,-45.683 81.963,-45.46 81.841,-45.304C81.242,-44.537 80.633,-43.777 79.991,-42.965C80.051,-42.525 80.319,-41.81 80.209,-41.159C79.913,-39.382 79.408,-37.641 79.076,-35.87C78.449,-32.528 78.196,-29.206 79.642,-25.958C80.061,-25.018 80.587,-24.332 81.583,-24.043C84.208,-23.281 86.504,-24.034 88.515,-25.703C89.368,-26.412 89.477,-27.468 89.102,-28.617M100.412,-35.673C100.148,-38.23 99.895,-40.695 99.637,-43.195C103.239,-41.011 103.525,-38.135 100.412,-35.673M99.35,-21.766C100.53,-22.154 101.149,-22.784 101.059,-24.171C100.928,-26.183 101.026,-28.209 101.026,-30.258C102.89,-29.648 104.958,-29.205 106.804,-28.306C108.85,-27.309 110.495,-27.963 112.192,-28.808C111.408,-33.774 107.358,-34.031 103.72,-34.882C105.629,-37.387 105.862,-39.328 104.636,-42.126C103.426,-44.885 101.61,-45.926 99.335,-45.163C98.742,-45.92 98.098,-45.913 97.768,-45.001C97.436,-44.082 97.21,-43.064 97.216,-42.091C97.246,-37.819 97.291,-33.543 97.503,-29.277C97.619,-26.959 98.095,-24.661 98.381,-22.349C98.464,-21.685 98.745,-21.566 99.35,-21.766M76.918,-5.808C76.743,-4.475 76.541,-3.098 74.875,-2.225C74.656,-5.336 74.458,-8.137 74.263,-10.901C75.795,-10.09 77.159,-7.611 76.918,-5.808M78.308,-0.243C80.015,-2.102 80.523,-4.277 79.908,-6.748C79.222,-9.505 78.193,-12.075 75.597,-13.558C74.417,-14.231 73.248,-14.766 72.917,-16.232C72.907,-16.278 72.787,-16.3 72.754,-16.315C71.792,-16.04 71.388,-15.462 71.49,-14.453C71.578,-13.573 71.492,-12.678 71.511,-11.79C71.586,-8.273 71.705,-4.757 71.728,-1.24C71.733,-0.55 71.389,0.144 71.215,0.798C71.394,1.375 71.67,1.936 71.719,2.516C71.779,3.221 71.606,3.942 71.606,4.655C71.606,7.715 70.509,10.839 72.25,13.799C73.5,13.713 74.335,13.151 74.382,12.263C74.471,10.589 74.534,8.914 74.631,7.241C74.73,5.548 74.858,3.857 74.986,1.976C76.331,3.234 77.555,4.395 78.794,5.537C80.479,7.092 81.565,7.037 83.046,5.481C82.919,2.297 80.115,1.486 78.308,-0.243M109.879,-15.895C109.846,-16.683 109.55,-17.46 109.374,-18.248C108.028,-17.886 107.641,-17.01 107.554,-15.967C107.428,-14.457 107.312,-12.942 107.28,-11.428C107.234,-9.278 107.268,-7.127 107.268,-4.875C105.427,-4.673 103.882,-4.503 102.29,-4.328C102.105,-8.981 102.084,-13.475 100.985,-17.849C99.747,-17.646 99.477,-16.892 99.393,-16.074C99.193,-14.131 98.945,-12.183 98.906,-10.234C98.826,-6.317 98.915,-2.398 98.853,1.519C98.815,3.945 99.343,6.246 100.083,8.522C100.317,9.246 100.758,9.423 101.423,9.005C101.684,8.84 102.047,8.782 102.231,8.564C102.517,8.224 102.902,7.774 102.875,7.397C102.752,5.7 102.447,4.017 102.312,2.321C102.218,1.149 102.293,-0.038 102.293,-1.056C103.944,-1.308 105.451,-1.538 106.984,-1.772C106.987,-1.743 107.027,-1.589 107.024,-1.435C106.968,1.481 106.729,4.407 106.904,7.309C107.044,9.662 107.66,11.989 108.124,14.317C108.179,14.593 108.628,15.013 108.867,14.994C110.034,14.906 110.632,14.158 110.624,12.939C110.598,9.184 110.622,5.427 110.519,1.673C110.359,-4.184 110.126,-10.041 109.879,-15.895M44.902,0.484L44.902,-10.787C49.455,-7.48 49.154,-2.635 44.902,0.484M44.57,-40.772C49.232,-37.251 49.609,-33.693 44.57,-27.734L44.57,-40.772ZM45.579,-14.449C45.234,-14.735 44.916,-15.266 44.896,-15.697C44.787,-18.133 44.763,-20.573 44.739,-23.012C44.737,-23.282 44.837,-23.641 45.025,-23.811C46.045,-24.735 47.208,-25.52 48.135,-26.526C50.036,-28.587 51.401,-31.009 51.296,-33.88C51.146,-38 49.205,-41.312 45.995,-43.835C44.995,-44.621 43.911,-45.213 43.868,-46.686C43.86,-46.966 43.604,-47.239 43.393,-47.653C42.796,-47.177 42.271,-46.757 41.684,-46.288C40.122,-46.974 38.442,-47.304 36.731,-45.788C37.101,-45.352 37.396,-44.742 37.877,-44.494C38.882,-43.976 40.009,-43.701 41.032,-43.212C41.308,-43.079 41.538,-42.534 41.535,-42.18C41.464,-34.386 41.358,-26.592 41.26,-18.798C41.252,-18.174 41.259,-17.549 41.259,-17.225C39.565,-16.809 38.077,-16.472 36.607,-16.071C35.898,-15.878 35.672,-15.416 36.22,-14.696C36.887,-14.696 37.605,-14.722 38.321,-14.691C40.439,-14.599 41.182,-13.995 41.185,-12.472C41.208,-2.804 41.219,6.864 41.288,16.532C41.3,18.429 41.69,20.288 42.5,22.015C43.712,21.774 44.319,21.143 44.414,19.982C44.523,18.639 44.826,17.304 44.844,15.962C44.903,11.808 44.866,7.652 44.866,3.52C45.75,3.148 46.519,2.864 47.253,2.51C49.805,1.278 51.804,-2.548 51.313,-5.136C50.584,-8.975 48.542,-11.983 45.579,-14.449M17.709,-51.723L13.664,-51.872L13.664,-57.028C15.009,-56.983 16.353,-56.937 17.709,-56.891L17.709,-51.723ZM17.709,16.255L13.664,16.255L13.664,-49.759L17.709,-49.61L17.709,16.255ZM17.709,23.291C17.074,23.288 15.622,23.283 13.664,23.277L13.664,18.366L17.709,18.366L17.709,23.291ZM11.325,-51.957L-19.858,-53.102L-19.858,-58.165C-9.377,-57.809 0.827,-57.464 11.325,-57.107L11.325,-51.957ZM11.325,16.255L-19.858,16.255L-19.858,-50.989L11.325,-49.845L11.325,16.255ZM11.325,23.27C0.661,23.237 -18.906,23.192 -18.906,23.292C-18.906,23.431 -19.628,24.535 -19.628,24.535L-19.858,24.535L-19.858,18.366L11.325,18.366L11.325,23.27ZM-22.197,-53.188L-25.864,-53.322L-25.864,-58.369C-24.634,-58.327 -23.417,-58.286 -22.197,-58.244L-22.197,-53.188ZM-22.197,16.255L-25.864,16.255L-25.864,-51.209L-22.197,-51.075L-22.197,16.255ZM-22.197,24.535L-25.864,24.535L-25.864,18.366L-22.197,18.366L-22.197,24.535ZM24.634,-56.952C24.651,-59.373 24.202,-61.139 23.03,-62.315C23.029,-63.515 23.028,-64.182 23.028,-64.182L21.405,-65.297C21.405,-65.297 -20.349,-63.906 -20.891,-64.069C-21.432,-64.233 -20.891,-62.663 -20.891,-62.663L-25.753,-62.565L-26.305,-62.582L-27.791,-62.582C-28.004,-62.827 -28.99,-63.803 -31.352,-64.044C-34.057,-64.32 -32.975,-62.249 -32.614,-61.973L-32.794,-61.697L-33.908,-61.835C-33.908,-61.835 -33.516,25.916 -33.876,25.916C-34.14,25.916 -32.679,26.429 -31.868,26.707L-31.868,27.738L-32.434,28.677C-32.434,28.677 -32.199,28.853 -31.868,28.981L-31.868,29.952C-28.619,29.605 -26.649,29.176 -24.697,29.22C-11.494,29.52 1.703,30.067 14.907,30.178C18.157,30.205 23.113,31.656 22.994,26.126C22.96,24.555 23.04,22.983 23.172,21.409C23.29,21.224 23.396,21.025 23.479,20.807C23.945,19.584 23.919,17.463 23.729,16.433C24.192,12.887 24.704,9.339 24.732,5.791C24.901,-15.122 24.484,-36.038 24.634,-56.952" style="fill:white;fill-rule:nonzero;"/>
        </g>
    </g>
</svg>
